HIERARCHY
ROOT Hips
{
	OFFSET -0.0000 111.0000 0.0000
	CHANNELS 6 Xposition Yposition Zposition Xrotation Zrotation Yrotation
	JOINT RightUpperLeg
	{
		OFFSET -10.5000 -8.8000 0.0000
		CHANNELS 3 Xrotation Zrotation Yrotation
		JOINT RightLowerLeg
		{
			OFFSET -0.0000 -45.6000 0.0000
			CHANNELS 3 Xrotation Zrotation Yrotation
			JOINT RightFoot
			{
				OFFSET -0.0000 -46.7000 0.0000
				CHANNELS 3 Xrotation Zrotation Yrotation
				JOINT RightToe
				{
					OFFSET -0.0000 -8.0000 12.1000
					CHANNELS 3 Xrotation Zrotation Yrotation
					End Site
					{
						OFFSET -0.0000 0.0000 2.4200
					}
				}
			}
		}
	}
	JOINT LeftUpperLeg
	{
		OFFSET 10.5000 -8.8000 0.0000
		CHANNELS 3 Xrotation Zrotation Yrotation
		JOINT LeftLowerLeg
		{
			OFFSET -0.0000 -45.6000 0.0000
			CHANNELS 3 Xrotation Zrotation Yrotation
			JOINT LeftFoot
			{
				OFFSET -0.0000 -46.7000 0.0000
				CHANNELS 3 Xrotation Zrotation Yrotation
				JOINT LeftToe
				{
					OFFSET -0.0000 -8.0000 12.1000
					CHANNELS 3 Xrotation Zrotation Yrotation
					End Site
					{
						OFFSET -0.0000 0.0000 2.4200
					}
				}
			}
		}
	}
	JOINT Spine
	{
		OFFSET -0.0000 9.7000 0.0000
		CHANNELS 3 Xrotation Zrotation Yrotation
		JOINT Spine1
		{
			OFFSET -0.0000 11.2000 0.0000
			CHANNELS 3 Xrotation Zrotation Yrotation
			JOINT Spine2
			{
				OFFSET -0.0000 12.1000 0.0000
				CHANNELS 3 Xrotation Zrotation Yrotation
				JOINT Spine3
				{
					OFFSET -0.0000 11.7000 1.2000
					CHANNELS 3 Xrotation Zrotation Yrotation
					JOINT Neck
					{
						OFFSET -0.0000 12.0000 -1.2000
						CHANNELS 3 Xrotation Zrotation Yrotation
						JOINT Head
						{
							OFFSET -0.0000 10.0000 0.0000
							CHANNELS 3 Xrotation Zrotation Yrotation
							End Site
							{
								OFFSET -0.0000 20.0000 0.0000
							}
						}
					}
					JOINT RightShoulder
					{
						OFFSET -4.9000 4.0000 -1.2000
						CHANNELS 3 Xrotation Zrotation Yrotation
						JOINT RightUpperArm
						{
							OFFSET -15.6000 0.0000 0.0000
							CHANNELS 3 Xrotation Zrotation Yrotation
							JOINT RightLowerArm
							{
								OFFSET -25.9000 0.0000 0.0000
								CHANNELS 3 Xrotation Zrotation Yrotation
								JOINT RightHand
								{
									OFFSET -28.4000 0.0000 0.0000
									CHANNELS 3 Xrotation Zrotation Yrotation
									JOINT RightThumbFinger
									{
										OFFSET -3.4000 0.3000 4.2000
										CHANNELS 3 Xrotation Zrotation Yrotation
										JOINT RightThumbFinger1
										{
											OFFSET -3.5000 0.0000 3.5000
											CHANNELS 3 Xrotation Zrotation Yrotation
											JOINT RightThumbFinger2
											{
												OFFSET -2.5000 0.0000 2.4000
												CHANNELS 3 Xrotation Zrotation Yrotation
												End Site
												{
													OFFSET -2.1450 0.0000 2.0592
												}
											}
										}
									}
									JOINT RightIndexFinger
									{
										OFFSET -4.4000 0.7000 2.6000
										CHANNELS 3 Xrotation Zrotation Yrotation
										JOINT RightIndexFinger1
										{
											OFFSET -7.0000 -0.1000 1.4000
											CHANNELS 3 Xrotation Zrotation Yrotation
											JOINT RightIndexFinger2
											{
												OFFSET -5.0000 -0.2000 0.0000
												CHANNELS 3 Xrotation Zrotation Yrotation
												JOINT RightIndexFinger3
												{
													OFFSET -2.7000 -0.2000 0.0000
													CHANNELS 3 Xrotation Zrotation Yrotation
													End Site
													{
														OFFSET -2.3814 -0.1764 0.0000
													}
												}
											}
										}
									}
									JOINT RightMiddleFinger
									{
										OFFSET -4.6000 0.7000 1.0000
										CHANNELS 3 Xrotation Zrotation Yrotation
										JOINT RightMiddleFinger1
										{
											OFFSET -7.0000 -0.1000 0.4000
											CHANNELS 3 Xrotation Zrotation Yrotation
											JOINT RightMiddleFinger2
											{
												OFFSET -5.3000 -0.3000 0.0000
												CHANNELS 3 Xrotation Zrotation Yrotation
												JOINT RightMiddleFinger3
												{
													OFFSET -3.4000 -0.3000 0.0000
													CHANNELS 3 Xrotation Zrotation Yrotation
													End Site
													{
														OFFSET -2.9988 -0.2646 0.0000
													}
												}
											}
										}
									}
									JOINT RightRingFinger
									{
										OFFSET -4.5000 0.8000 -0.1000
										CHANNELS 3 Xrotation Zrotation Yrotation
										JOINT RightRingFinger1
										{
											OFFSET -6.3000 -0.1000 -0.7000
											CHANNELS 3 Xrotation Zrotation Yrotation
											JOINT RightRingFinger2
											{
												OFFSET -4.7000 -0.4000 0.0000
												CHANNELS 3 Xrotation Zrotation Yrotation
												JOINT RightRingFinger3
												{
													OFFSET -3.2000 -0.3000 0.0000
													CHANNELS 3 Xrotation Zrotation Yrotation
													End Site
													{
														OFFSET -2.8224 -0.2646 0.0000
													}
												}
											}
										}
									}
									JOINT RightPinkyFinger
									{
										OFFSET -4.3000 0.7000 -1.6000
										CHANNELS 3 Xrotation Zrotation Yrotation
										JOINT RightPinkyFinger1
										{
											OFFSET -5.6000 -0.1000 -1.5000
											CHANNELS 3 Xrotation Zrotation Yrotation
											JOINT RightPinkyFinger2
											{
												OFFSET -3.7000 -0.2000 0.0000
												CHANNELS 3 Xrotation Zrotation Yrotation
												JOINT RightPinkyFinger3
												{
													OFFSET -2.4000 -0.1000 0.0000
													CHANNELS 3 Xrotation Zrotation Yrotation
													End Site
													{
														OFFSET -2.1168 -0.0882 0.0000
													}
												}
											}
										}
									}
								}
							}
						}
					}
					JOINT LeftShoulder
					{
						OFFSET 4.9000 4.0000 -1.2000
						CHANNELS 3 Xrotation Zrotation Yrotation
						JOINT LeftUpperArm
						{
							OFFSET 15.6000 0.0000 0.0000
							CHANNELS 3 Xrotation Zrotation Yrotation
							JOINT LeftLowerArm
							{
								OFFSET 25.9000 0.0000 0.0000
								CHANNELS 3 Xrotation Zrotation Yrotation
								JOINT LeftHand
								{
									OFFSET 28.4000 0.0000 0.0000
									CHANNELS 3 Xrotation Zrotation Yrotation
									JOINT LeftThumbFinger
									{
										OFFSET 3.4000 0.3000 4.2000
										CHANNELS 3 Xrotation Zrotation Yrotation
										JOINT LeftThumbFinger1
										{
											OFFSET 3.5000 0.0000 3.5000
											CHANNELS 3 Xrotation Zrotation Yrotation
											JOINT LeftThumbFinger2
											{
												OFFSET 2.5000 0.0000 2.5000
												CHANNELS 3 Xrotation Zrotation Yrotation
												End Site
												{
													OFFSET 2.1450 0.0000 2.1450
												}
											}
										}
									}
									JOINT LeftIndexFinger
									{
										OFFSET 4.4000 0.7000 2.6000
										CHANNELS 3 Xrotation Zrotation Yrotation
										JOINT LeftIndexFinger1
										{
											OFFSET 7.0000 -0.1000 1.4000
											CHANNELS 3 Xrotation Zrotation Yrotation
											JOINT LeftIndexFinger2
											{
												OFFSET 5.0000 -0.2000 0.0000
												CHANNELS 3 Xrotation Zrotation Yrotation
												JOINT LeftIndexFinger3
												{
													OFFSET 2.7000 -0.2000 0.0000
													CHANNELS 3 Xrotation Zrotation Yrotation
													End Site
													{
														OFFSET 2.3814 -0.1764 0.0000
													}
												}
											}
										}
									}
									JOINT LeftMiddleFinger
									{
										OFFSET 4.6000 0.7000 1.0000
										CHANNELS 3 Xrotation Zrotation Yrotation
										JOINT LeftMiddleFinger1
										{
											OFFSET 7.0000 -0.1000 0.4000
											CHANNELS 3 Xrotation Zrotation Yrotation
											JOINT LeftMiddleFinger2
											{
												OFFSET 5.3000 -0.3000 0.0000
												CHANNELS 3 Xrotation Zrotation Yrotation
												JOINT LeftMiddleFinger3
												{
													OFFSET 3.4000 -0.3000 0.0000
													CHANNELS 3 Xrotation Zrotation Yrotation
													End Site
													{
														OFFSET 2.9988 -0.2646 0.0000
													}
												}
											}
										}
									}
									JOINT LeftRingFinger
									{
										OFFSET 4.5000 0.8000 -0.1000
										CHANNELS 3 Xrotation Zrotation Yrotation
										JOINT LeftRingFinger1
										{
											OFFSET 6.3000 -0.1000 -0.7000
											CHANNELS 3 Xrotation Zrotation Yrotation
											JOINT LeftRingFinger2
											{
												OFFSET 4.7000 -0.3000 0.0000
												CHANNELS 3 Xrotation Zrotation Yrotation
												JOINT LeftRingFinger3
												{
													OFFSET 3.2000 -0.2000 0.0000
													CHANNELS 3 Xrotation Zrotation Yrotation
													End Site
													{
														OFFSET 2.8224 -0.1764 0.0000
													}
												}
											}
										}
									}
									JOINT LeftPinkyFinger
									{
										OFFSET 4.3000 0.7000 -1.6000
										CHANNELS 3 Xrotation Zrotation Yrotation
										JOINT LeftPinkyFinger1
										{
											OFFSET 5.6000 -0.1000 -1.5000
											CHANNELS 3 Xrotation Zrotation Yrotation
											JOINT LeftPinkyFinger2
											{
												OFFSET 3.7000 -0.2000 0.1000
												CHANNELS 3 Xrotation Zrotation Yrotation
												JOINT LeftPinkyFinger3
												{
													OFFSET 2.4000 -0.1000 -0.1000
													CHANNELS 3 Xrotation Zrotation Yrotation
													End Site
													{
														OFFSET 2.1168 -0.0882 -0.0882
													}
												}
											}
										}
									}
								}
							}
						}
					}
				}
			}
		}
	}
}
MOTION
Frames: 10
Frame Time: 0.010417
30.08 111.42 -5.99 2.60 -3.73 -33.70 -29.48 2.06 11.63 36.13 7.83 -10.55 3.26 2.82 -4.05 -0.00 0.00 0.00 -7.55 3.15 7.21 11.44 -0.09 -1.02 -3.88 2.50 1.76 0.00 0.00 0.00 0.95 -0.91 0.47 1.11 -0.78 0.60 1.21 -0.85 0.63 1.20 -0.85 0.63 20.23 3.93 -9.63 17.28 3.15 -8.29 12.58 4.78 -4.23 9.80 77.13 22.75 1.35 7.69 9.95 27.40 -13.99 7.94 6.59 -1.62 -2.03 1.16 6.09 -13.12 -1.77 10.18 -18.85 -0.00 -0.00 0.00 0.00 1.41 2.01 -0.54 15.03 -0.16 -0.27 7.76 -0.11 -0.00 -0.00 0.00 -0.00 2.71 0.00 0.01 22.27 0.01 -0.00 11.81 -0.00 -0.00 -0.00 0.00 -0.00 3.73 -1.99 1.00 26.53 0.50 0.45 14.30 0.37 -0.00 -0.00 0.00 0.00 1.52 -4.00 1.12 15.68 0.33 0.55 8.13 0.25 12.15 -3.51 0.19 -5.46 -74.40 -4.79 1.67 -4.76 -8.76 12.28 11.05 -2.10 1.78 1.91 2.02 -2.31 -12.73 18.66 -8.27 -19.22 27.85 0.00 0.00 0.00 0.01 -2.69 -2.00 -0.81 -22.13 0.35 -0.38 -11.73 0.24 0.00 0.00 0.00 0.01 -6.23 -0.00 -0.00 -34.72 -0.00 -0.00 -19.41 0.00 0.00 0.00 0.00 0.00 -4.83 1.99 1.18 -30.47 -0.69 0.48 -16.72 -0.47 0.00 0.00 0.00 0.00 -6.70 3.98 2.90 -35.97 -1.98 1.09 -20.25 -1.32 
30.18 111.44 -5.97 2.71 -3.85 -33.95 -30.04 2.35 11.32 34.33 7.68 -10.34 3.81 2.23 -4.21 0.00 0.00 0.00 -7.57 3.31 7.67 11.47 -0.08 -1.14 -3.90 2.56 1.64 0.00 0.00 0.00 0.95 -0.87 0.44 1.14 -0.78 0.55 1.23 -0.85 0.59 1.22 -0.83 0.59 20.27 3.91 -9.55 17.30 3.13 -8.23 12.55 4.74 -4.25 9.71 77.05 22.76 1.43 7.59 10.01 27.80 -14.14 7.87 6.77 -1.60 -2.03 1.19 6.16 -13.31 -1.83 10.32 -19.09 -0.00 0.00 0.00 -0.00 1.41 1.99 -0.53 15.05 -0.15 -0.26 7.75 -0.11 -0.00 0.00 0.00 -0.00 2.71 -0.00 0.01 22.25 -0.00 -0.00 11.80 -0.00 -0.00 0.00 0.00 -0.01 3.66 -2.00 0.99 26.25 0.49 0.44 14.15 0.35 -0.00 0.00 0.00 -0.01 1.48 -4.00 1.12 15.52 0.33 0.54 8.01 0.24 12.12 -3.49 0.16 -5.01 -74.32 -5.29 1.28 -4.81 -8.88 11.93 11.09 -2.38 1.77 1.91 2.03 -2.30 -12.74 18.66 -8.28 -19.23 27.86 0.00 0.00 0.00 -0.00 -2.69 -2.00 -0.82 -22.13 0.34 -0.37 -11.73 0.25 0.00 0.00 0.00 -0.01 -6.22 -0.00 0.01 -34.73 0.00 0.00 -19.40 -0.00 0.00 0.00 0.00 -0.00 -4.83 2.00 1.18 -30.47 -0.69 0.49 -16.72 -0.48 0.00 0.00 0.00 -0.01 -6.71 3.97 2.89 -35.96 -1.97 1.08 -20.25 -1.32 
30.29 111.47 -5.97 2.81 -3.97 -34.21 -30.48 2.67 11.13 32.26 7.47 -10.30 4.35 1.68 -4.17 0.00 0.00 -0.00 -7.59 3.47 8.00 11.50 -0.08 -1.10 -3.91 2.59 1.51 0.00 -0.00 0.00 0.97 -0.85 0.40 1.15 -0.78 0.52 1.23 -0.83 0.55 1.24 -0.84 0.55 20.32 3.89 -9.46 17.34 3.12 -8.16 12.54 4.71 -4.24 9.38 76.96 22.49 1.51 7.50 10.07 28.43 -14.25 7.80 6.78 -1.59 -2.02 1.19 6.15 -13.31 -1.84 10.32 -19.09 0.00 0.00 0.00 -0.01 1.42 2.00 -0.53 15.04 -0.15 -0.26 7.77 -0.11 0.00 0.00 0.00 0.00 2.72 -0.01 0.01 22.25 0.01 0.00 11.79 -0.00 0.00 0.00 0.00 -0.00 3.66 -1.99 0.98 26.26 0.48 0.44 14.14 0.36 0.00 0.00 0.00 0.00 1.49 -4.01 1.11 15.51 0.34 0.54 8.01 0.23 12.10 -3.46 0.22 -4.06 -74.25 -6.31 0.86 -4.85 -9.03 11.55 11.01 -2.66 1.83 1.96 2.09 -2.31 -12.65 18.74 -8.37 -19.13 27.95 -0.00 0.00 -0.00 0.01 -2.70 -2.00 -0.82 -22.14 0.34 -0.38 -11.72 0.25 -0.00 0.00 -0.00 0.01 -6.21 0.00 -0.00 -34.70 -0.00 -0.01 -19.40 0.00 -0.00 0.00 -0.00 0.01 -4.81 1.99 1.18 -30.42 -0.68 0.48 -16.67 -0.47 -0.00 0.00 -0.00 0.00 -6.66 3.97 2.88 -35.84 -1.96 1.08 -20.17 -1.31 
30.39 111.49 -5.96 2.91 -4.10 -34.40 -30.85 2.95 11.01 30.07 7.21 -10.41 4.93 1.26 -4.06 -0.00 -0.00 0.00 -7.61 3.64 8.25 11.52 -0.09 -1.06 -3.92 2.64 1.39 0.00 -0.00 0.00 0.98 -0.82 0.37 1.17 -0.76 0.47 1.26 -0.81 0.50 1.26 -0.83 0.51 20.37 3.88 -9.41 17.39 3.10 -8.10 12.51 4.68 -4.28 8.88 76.87 22.05 1.68 7.46 10.14 29.21 -14.43 7.65 6.95 -1.57 -2.01 1.20 6.29 -13.47 -1.92 10.55 -19.30 -0.00 -0.00 -0.00 0.00 1.43 2.01 -0.54 15.09 -0.16 -0.27 7.78 -0.11 -0.00 -0.00 -0.00 -0.00 2.72 -0.00 0.00 22.23 0.00 0.01 11.79 0.00 -0.00 -0.00 -0.00 0.00 3.62 -1.99 0.98 26.10 0.49 0.43 14.05 0.35 -0.00 -0.00 -0.00 0.00 1.48 -4.00 1.11 15.40 0.33 0.54 7.96 0.23 12.09 -3.43 0.14 -4.94 -74.22 -5.49 0.72 -4.88 -9.09 11.43 10.99 -2.75 1.86 1.97 2.12 -2.30 -12.63 18.77 -8.40 -19.09 27.99 -0.00 -0.00 0.00 0.00 -2.69 -2.00 -0.81 -22.13 0.34 -0.38 -11.71 0.25 -0.00 -0.00 0.00 -0.00 -6.23 -0.00 -0.01 -34.73 0.01 0.01 -19.40 -0.00 -0.00 -0.00 0.00 0.00 -4.81 2.00 1.17 -30.43 -0.68 0.50 -16.69 -0.47 -0.00 -0.00 0.00 0.00 -6.64 3.98 2.86 -35.77 -1.95 1.08 -20.14 -1.30 
30.50 111.52 -5.95 3.02 -4.23 -34.53 -31.23 3.20 10.83 27.90 6.94 -10.48 5.46 0.85 -3.81 -0.00 -0.00 0.00 -7.65 3.78 8.32 11.54 -0.10 -0.92 -3.90 2.67 1.29 0.00 -0.00 0.00 1.00 -0.79 0.33 1.19 -0.75 0.41 1.29 -0.81 0.44 1.28 -0.80 0.45 20.41 3.86 -9.33 17.43 3.11 -8.03 12.48 4.63 -4.30 9.70 76.83 22.95 1.75 7.45 10.17 29.47 -14.48 7.60 7.14 -1.54 -1.99 1.25 6.33 -13.61 -1.94 10.66 -19.48 0.00 -0.00 -0.00 -0.00 1.43 2.00 -0.54 15.04 -0.16 -0.26 7.77 -0.11 0.00 -0.00 -0.00 0.00 2.69 0.00 -0.00 22.13 -0.00 -0.00 11.72 -0.01 0.00 -0.00 -0.00 0.00 3.57 -2.00 0.96 25.88 0.48 0.44 13.93 0.34 0.00 -0.00 -0.00 -0.00 1.46 -4.00 1.10 15.30 0.32 0.53 7.90 0.23 12.08 -3.42 0.08 -3.93 -74.12 -6.56 0.30 -4.95 -9.30 11.14 10.85 -2.86 1.86 1.97 2.11 -2.31 -12.62 18.78 -8.40 -19.10 27.99 -0.00 -0.00 0.00 -0.00 -2.69 -2.00 -0.82 -22.12 0.35 -0.37 -11.72 0.25 -0.00 -0.00 0.00 -0.00 -6.23 -0.00 -0.01 -34.73 0.00 -0.00 -19.41 0.01 -0.00 -0.00 0.00 -0.00 -4.82 2.00 1.17 -30.42 -0.68 0.48 -16.68 -0.47 -0.00 -0.00 0.00 -0.00 -6.65 3.97 2.87 -35.77 -1.94 1.08 -20.13 -1.30 
30.61 111.54 -5.96 3.12 -4.37 -34.62 -31.52 3.50 10.77 25.59 6.51 -10.73 5.88 0.81 -3.35 0.00 0.00 0.00 -7.68 3.93 8.28 11.54 -0.13 -0.73 -3.88 2.71 1.19 0.00 -0.00 0.00 1.02 -0.76 0.28 1.22 -0.73 0.37 1.31 -0.79 0.39 1.32 -0.80 0.39 20.46 3.88 -9.27 17.47 3.10 -7.99 12.44 4.62 -4.33 9.27 76.75 22.55 1.83 7.35 10.17 30.04 -14.61 7.50 7.14 -1.55 -1.98 1.25 6.34 -13.62 -1.95 10.65 -19.46 0.00 0.00 0.00 0.00 1.41 2.00 -0.54 15.05 -0.15 -0.26 7.77 -0.12 0.00 0.00 0.00 0.00 2.70 0.00 -0.00 22.12 0.00 -0.00 11.72 -0.01 0.00 0.00 0.00 0.01 3.58 -2.00 0.97 25.87 0.48 0.43 13.93 0.35 0.00 0.00 0.00 0.01 1.46 -4.00 1.09 15.29 0.32 0.54 7.90 0.23 12.07 -3.40 0.02 -2.32 -73.98 -8.27 -0.16 -5.00 -9.52 10.86 10.68 -2.94 1.92 2.00 2.14 -2.29 -12.60 18.81 -8.45 -19.06 28.03 -0.00 -0.00 0.00 -0.01 -2.69 -1.99 -0.81 -22.08 0.34 -0.37 -11.70 0.25 -0.00 -0.00 0.00 -0.00 -6.20 -0.00 -0.00 -34.64 -0.00 -0.00 -19.35 -0.00 -0.00 -0.00 0.00 -0.01 -4.79 2.00 1.17 -30.33 -0.67 0.48 -16.61 -0.47 -0.00 -0.00 0.00 -0.01 -6.58 3.97 2.86 -35.63 -1.94 1.08 -20.03 -1.29 
30.72 111.57 -5.95 3.22 -4.51 -34.73 -31.78 3.87 10.82 23.25 5.92 -11.03 6.37 1.13 -2.86 0.00 -0.00 0.00 -7.70 4.06 8.23 11.52 -0.14 -0.52 -3.84 2.75 1.12 -0.00 0.00 0.00 1.05 -0.73 0.25 1.24 -0.72 0.31 1.34 -0.78 0.33 1.34 -0.78 0.33 20.52 3.88 -9.20 17.52 3.11 -7.93 12.42 4.61 -4.36 8.54 76.65 21.84 2.05 7.34 10.20 30.49 -14.73 7.39 7.74 -1.45 -1.89 1.40 6.52 -13.91 -1.96 11.05 -19.81 0.00 -0.00 0.00 0.00 1.42 2.00 -0.54 15.12 -0.15 -0.26 7.79 -0.11 0.00 -0.00 0.00 0.00 2.70 0.00 0.00 22.15 0.00 0.00 11.74 0.01 0.00 -0.00 0.00 0.01 3.56 -1.99 0.98 25.91 0.48 0.42 13.95 0.34 0.00 -0.00 0.00 -0.00 1.44 -4.00 1.09 15.19 0.31 0.53 7.84 0.24 12.07 -3.37 -0.04 -0.98 -73.84 -9.71 -0.82 -5.03 -9.52 10.77 10.63 -2.96 1.97 2.02 2.16 -2.29 -12.59 18.83 -8.46 -19.04 28.04 0.00 0.00 0.00 -0.00 -2.67 -2.00 -0.81 -22.03 0.33 -0.37 -11.69 0.25 0.00 0.00 0.00 0.00 -6.13 0.00 -0.00 -34.47 0.00 0.01 -19.24 -0.00 0.00 0.00 0.00 -0.00 -4.74 1.99 1.16 -30.18 -0.67 0.49 -16.54 -0.46 0.00 0.00 0.00 -0.00 -6.51 3.98 2.84 -35.48 -1.91 1.08 -19.93 -1.29 
30.84 111.60 -5.96 3.33 -4.64 -34.77 -32.03 4.26 10.81 20.92 5.20 -11.31 6.85 1.53 -2.37 -0.00 -0.00 0.00 -7.73 4.19 8.13 11.48 -0.16 -0.31 -3.79 2.79 1.02 -0.00 0.00 0.00 1.05 -0.71 0.20 1.27 -0.71 0.25 1.37 -0.76 0.27 1.36 -0.75 0.28 20.59 3.89 -9.14 17.59 3.13 -7.88 12.40 4.58 -4.39 9.11 76.63 22.49 2.13 7.35 10.20 30.64 -14.79 7.36 8.49 -1.31 -1.75 1.59 6.74 -14.26 -1.95 11.53 -20.20 -0.00 0.00 0.00 -0.00 1.42 2.00 -0.54 15.12 -0.16 -0.26 7.80 -0.11 -0.00 0.00 0.00 0.00 2.71 0.00 -0.01 22.19 -0.00 0.01 11.76 -0.00 -0.00 0.00 0.00 0.00 3.58 -2.00 0.97 25.96 0.48 0.43 13.97 0.36 -0.00 0.00 0.00 0.00 1.43 -4.00 1.08 15.10 0.31 0.52 7.80 0.22 12.05 -3.37 -0.09 -1.29 -73.78 -9.48 -0.64 -5.09 -9.85 10.62 10.49 -2.99 2.01 2.03 2.17 -2.27 -12.59 18.83 -8.47 -19.06 28.04 0.00 0.00 -0.00 -0.00 -2.66 -2.00 -0.81 -22.00 0.34 -0.37 -11.65 0.25 0.00 0.00 -0.00 -0.00 -6.09 -0.00 -0.01 -34.36 0.01 0.00 -19.17 -0.00 0.00 0.00 -0.00 -0.00 -4.70 2.00 1.15 -30.07 -0.67 0.49 -16.46 -0.45 0.00 0.00 -0.00 -0.00 -6.45 3.98 2.82 -35.27 -1.89 1.07 -19.79 -1.27 
30.96 111.63 -5.96 3.43 -4.79 -34.80 -32.24 4.66 10.90 18.53 4.42 -11.56 7.27 2.23 -1.93 0.00 -0.00 0.00 -7.73 4.32 8.00 11.39 -0.17 -0.13 -3.70 2.83 0.98 -0.00 0.00 -0.00 1.09 -0.68 0.16 1.29 -0.69 0.21 1.39 -0.74 0.23 1.38 -0.74 0.22 20.67 3.92 -9.08 17.64 3.16 -7.84 12.37 4.56 -4.44 8.60 76.59 21.99 2.29 7.27 10.13 30.83 -14.88 7.28 8.89 -1.22 -1.67 1.68 6.90 -14.46 -1.98 11.84 -20.42 -0.00 0.00 -0.00 0.01 1.43 2.00 -0.55 15.11 -0.16 -0.25 7.79 -0.11 -0.00 0.00 -0.00 0.01 2.70 -0.00 0.00 22.19 0.00 -0.00 11.76 -0.00 -0.00 0.00 -0.00 0.00 3.56 -2.00 0.97 25.91 0.47 0.43 13.93 0.35 -0.00 0.00 -0.00 0.00 1.41 -4.00 1.07 15.01 0.31 0.51 7.75 0.22 12.06 -3.33 -0.17 -0.29 -73.67 -10.59 -0.77 -5.11 -10.16 10.58 10.35 -3.05 2.01 2.03 2.17 -2.29 -12.59 18.84 -8.47 -19.06 28.04 0.00 0.00 0.00 -0.00 -2.66 -2.00 -0.81 -22.01 0.34 -0.38 -11.65 0.25 0.00 0.00 0.00 -0.00 -6.09 0.00 -0.00 -34.35 0.00 -0.01 -19.18 0.00 0.00 0.00 0.00 -0.01 -4.71 2.00 1.16 -30.06 -0.66 0.48 -16.47 -0.45 0.00 0.00 0.00 -0.01 -6.45 3.98 2.82 -35.27 -1.89 1.07 -19.79 -1.26 
31.08 111.67 -5.96 3.53 -4.94 -34.82 -32.42 5.09 11.00 16.14 3.60 -11.65 7.69 3.18 -1.63 -0.00 -0.00 0.00 -7.70 4.43 7.92 11.24 -0.18 0.01 -3.59 2.87 0.94 -0.00 0.00 -0.00 1.10 -0.66 0.12 1.31 -0.67 0.15 1.42 -0.73 0.17 1.41 -0.73 0.17 20.73 3.95 -9.03 17.72 3.18 -7.77 12.33 4.54 -4.44 7.81 76.56 21.16 2.46 7.22 10.03 31.08 -14.98 7.18 8.89 -1.22 -1.67 1.68 6.89 -14.47 -1.98 11.84 -20.41 -0.00 -0.00 0.00 -0.01 1.43 2.00 -0.54 15.10 -0.15 -0.26 7.80 -0.12 -0.00 -0.00 0.00 0.00 2.71 -0.00 0.00 22.18 0.00 0.00 11.76 0.00 -0.00 -0.00 0.00 0.00 3.57 -2.00 0.96 25.90 0.48 0.43 13.94 0.34 -0.00 -0.00 0.00 -0.00 1.42 -4.00 1.06 15.02 0.30 0.53 7.74 0.22 12.03 -3.31 -0.21 0.48 -73.58 -11.48 -0.78 -5.13 -10.53 10.56 10.23 -3.03 2.15 2.05 2.21 -2.24 -12.56 18.89 -8.51 -19.07 28.08 0.00 -0.00 -0.00 0.00 -2.65 -2.00 -0.80 -21.91 0.33 -0.37 -11.60 0.24 0.00 -0.00 -0.00 0.00 -6.00 -0.00 -0.00 -34.11 0.00 0.00 -19.02 0.00 0.00 -0.00 -0.00 0.01 -4.65 2.00 1.14 -29.86 -0.66 0.48 -16.34 -0.45 0.00 -0.00 -0.00 0.00 -6.35 3.98 2.78 -35.00 -1.86 1.07 -19.62 -1.25 
